<?xml version="1.0" encoding="UTF-8"?>
<svg width="180px" height="180px" viewBox="0 0 180 180" version="1.1" xmlns="http://www.w3.org/2000/svg" xmlns:xlink="http://www.w3.org/1999/xlink">
    <title>180x180 (iPhone) Copy@1x</title>
    <defs>
        <filter x="-100.0%" y="-100.0%" width="300.0%" height="300.0%" filterUnits="objectBoundingBox" id="filter-1">
            <feGaussianBlur stdDeviation="24" in="SourceGraphic"></feGaussianBlur>
        </filter>
    </defs>
    <g id="180x180-(iPhone)-Copy" stroke="none" stroke-width="1" fill="none" fill-rule="evenodd">
        <path d="M82.4469027,29.0234228 C85.2388066,22.3255257 94.7611934,22.3255257 97.5530973,29.0234228 L110.527972,60.1621143 L144.205314,62.854955 C151.459279,63.433325 154.400749,72.463359 148.873028,77.189823 L123.216179,99.1243477 L131.049713,131.917302 C132.738566,138.982122 125.042134,144.560593 118.835133,140.779422 L90,123.204438 L61.1648669,140.779422 C54.9578661,144.560593 47.2614344,138.975903 48.950287,131.917302 L56.7838211,99.1243477 L31.1269715,77.189823 C25.599251,72.463359 28.5407212,63.433325 35.794686,62.854955 L69.4720275,60.1621143 L82.4469027,29.0296419 L82.4469027,29.0234228 Z" id="Path" fill="#FFFFFF" fill-rule="nonzero"></path>
        <circle id="Oval" fill="#FFFFFF" filter="url(#filter-1)" cx="90" cy="90" r="36"></circle>
    </g>
</svg>