<?xml version="1.0" encoding="UTF-8"?>
<svg width="180px" height="180px" viewBox="0 0 180 180" version="1.1" xmlns="http://www.w3.org/2000/svg" xmlns:xlink="http://www.w3.org/1999/xlink">
    <title>180x180 (iPhone)@1x</title>
    <g id="180x180-(iPhone)" stroke="none" stroke-width="1" fill="none" fill-rule="evenodd">
        <rect fill="#080315" x="0" y="0" width="180" height="180"></rect>
        <g id="G" transform="translate(31.000000, 38.000000)" fill="#FFFFFF" fill-rule="nonzero">
            <path d="M58.9354839,108 C91.1612903,108 117,91.0843373 117,58.4096386 L117,49.7349398 L57.483871,49.7349398 L57.483871,65.9277108 L91.5967742,65.9277108 C89.7096774,79.6626506 78.6774194,88.0481928 59.3709677,88.0481928 C38.7580645,88.0481928 25.5483871,76.1927711 25.5483871,53.9277108 C25.5483871,33.1084337 37.5967742,19.9518072 59.9516129,19.9518072 C75.0483871,19.9518072 86.8064516,26.313253 89.8548387,37.4457831 L115.403226,37.4457831 C112.354839,15.0361446 91.5967742,0 59.9516129,0 C22.5,0 0,21.253012 0,53.9277108 C0,86.6024096 22.3548387,108 58.9354839,108 Z" id="Path"></path>
        </g>
        <g id="Group" transform="translate(23.153837, 21.000000)" fill="#E1B53E" fill-rule="nonzero">
            <path d="M15.5820679,1.44742691 C16.38485,-0.482475638 19.1229105,-0.482475638 19.9256926,1.44742691 L23.6564791,10.4195923 L33.3400385,11.1954955 C35.4258384,11.3621445 36.2716267,13.9640187 34.6821898,15.3258812 L27.3048372,21.6459985 L29.5572861,31.0948157 C30.0428976,33.1304418 27.829871,34.737798 26.0451143,33.648308 L17.7538802,28.5843297 L9.46264614,33.648308 C7.67788946,34.737798 5.46486286,33.1286499 5.95047437,31.0948157 L8.20292331,21.6459985 L0.82557065,15.3258812 C-0.763866272,13.9640187 0.0819220336,11.3621445 2.16772201,11.1954955 L11.8512813,10.4195923 L15.5820679,1.44921884 L15.5820679,1.44742691 Z" id="Path"></path>
        </g>
    </g>
</svg>